<?xml version="1.0" encoding="UTF-8"?>
<!DOCTYPE svg PUBLIC "-//W3C//DTD SVG 1.0//EN" "http://www.w3.org/TR/2001/REC-SVG-20010904/DTD/svg10.dtd">
<!-- Creator: CorelDRAW 2020 (64-Bit) -->
<?xml-stylesheet href="logotipo.css" type="text/css"?>
<svg xmlns="http://www.w3.org/2000/svg" xml:space="preserve" width="83.705mm" height="88.6643mm" version="1.0" style="shape-rendering:geometricPrecision; text-rendering:geometricPrecision; image-rendering:optimizeQuality; fill-rule:evenodd; clip-rule:evenodd"
viewBox="0 0 75629.8 80110.7"
 xmlns:xlink="http://www.w3.org/1999/xlink"
 xmlns:xodm="http://www.corel.com/coreldraw/odm/2003">
 <g id="Capa_x0020_1">
  <metadata id="CorelCorpID_0Corel-Layer"/>
  <polygon class="fil0" points="1713.9,63369.1 1713.9,57936.2 3361.8,57936.2 4335.5,61641.6 5297.9,57936.2 6949.6,57936.2 6949.6,63369.1 5932.7,63369.1 5929,59092.1 4857.8,63369.1 3800.5,63369.1 2734.4,59092.1 2730.6,63369.1 "/>
  <polygon id="1" class="fil0" points="12533.4,63369.1 12533.4,57936.2 16555,57936.2 16555,58854.3 13633.6,58854.3 13633.6,60060.8 16350.1,60060.8 16350.1,60978.9 13633.6,60978.9 13633.6,62451 16661.1,62451 16661.1,63369.1 "/>
  <polygon id="2" class="fil0" points="22062.9,63369.1 22062.9,57936.2 23710.7,57936.2 24684.5,61641.6 25646.9,57936.2 27298.6,57936.2 27298.6,63369.1 26281.7,63369.1 26277.9,59092.1 25206.8,63369.1 24149.5,63369.1 23083.4,59092.1 23079.6,63369.1 "/>
  <path id="3" class="fil0" d="M32654.7 60685.5c0,-554 83.5,-1019.4 249.2,-1396.2 122.6,-276.9 292.1,-526 505.8,-746.1 213.8,-220 447.7,-383.2 702,-490.7 338.9,-142.8 729.7,-214.9 1172.3,-214.9 801.8,0 1441.7,249.1 1923.5,746.1 480.6,498.3 720.8,1190 720.8,2076.6 0,879 -239,1566.9 -715.8,2062.7 -476.8,496.9 -1115.4,744.9 -1913.4,744.9 -808.1,0 -1451.9,-246.7 -1928.7,-741.1 -476.7,-493.2 -715.8,-1173.6 -715.8,-2041.2zm1130.6 -36.7c0,615.8 142.9,1082.5 427.5,1401.2 284.6,317.5 646.3,476.8 1083.9,476.8 438.8,0 798,-158 1080,-473 280.7,-316.1 421.1,-789.1 421.1,-1420.2 0,-623.5 -136.6,-1088.8 -411,-1395 -273.1,-307.3 -636.2,-460.3 -1090.1,-460.3 -452.8,0 -818.2,155.6 -1095.3,465.4 -276.9,311.2 -416.1,779 -416.1,1405.1z"/>
  <path id="4" class="fil0" d="M43268.1 63369.1l0 -5432.9 2310.5 0c580.4,0 1002.8,49.2 1265.9,146.6 264.3,97.4 474.2,270.7 632.3,519.8 158.1,250.4 237.7,535 237.7,856.2 0,408.5 -118.8,744.9 -357.9,1010.4 -239,265.6 -595.6,432.5 -1071.1,502.1 236.5,137.9 431.3,289.6 584.3,455.3 154.2,165.6 361.7,460.3 622.2,882.7l662.6 1059.7 -1311.4 0 -786.6 -1186.2c-282.1,-421.1 -475.5,-686.7 -580.5,-796.7 -103.7,-108.8 -213.7,-184.7 -330.1,-225.1 -117.6,-40.5 -302.2,-60.7 -555.2,-60.7l-222.5 0 0 2268.8 -1100.2 0zm1100.2 -3133.8l811.9 0c526.1,0 853.7,-22.8 985.1,-67 130.3,-44.3 234,-121.4 307.4,-230.1 74.5,-108.8 111.2,-245.4 111.2,-408.5 0,-183.4 -49.3,-330.1 -146.6,-443.9 -97.4,-112.6 -235.3,-183.4 -412.3,-212.5 -89.8,-12.6 -356.6,-19 -800.5,-19l-856.2 0 0 1381z"/>
  <polygon id="5" class="fil0" points="53193.4,63369.1 53193.4,57936.2 54293.6,57936.2 54293.6,63369.1 "/>
  <path id="6" class="fil0" d="M64717.3 63369.1l-1185 0 -469.2 -1236.8 -2178.9 0 -451.5 1236.8 -1163.5 0 2109.5 -5432.9 1162.2 0 2176.4 5432.9zm-2010.8 -2155l-755 -2010.8 -733.5 2010.8 1488.5 0z"/>
  <path id="7" class="fil0" d="M69498 61608.7l1070 -106.2c64.4,357.9 193.4,619.6 389.5,787.9 196,168.1 460.3,251.6 792.9,251.6 351.6,0 617.1,-74.6 795.5,-223.8 178.3,-149.3 268.1,-323.8 268.1,-523.6 0,-129 -37.9,-237.7 -112.6,-328.8 -74.6,-89.8 -206.1,-168.2 -393.3,-234 -127.7,-45.5 -418.6,-123.9 -873.9,-237.7 -585.5,-146.7 -996.5,-326.3 -1233,-540 -332.7,-299.7 -498.3,-665.2 -498.3,-1096.4 0,-276.9 78.4,-537.5 233.9,-779 156.9,-241.5 381.9,-424.9 676.7,-551.4 294.6,-126.4 648.7,-189.7 1066.1,-189.7 679.1,0 1191.3,150.4 1534,452.8 344,302.2 523.6,704.4 541.3,1209l-1100.3 37.9c-46.7,-280.8 -146.6,-481.9 -299.7,-604.6 -153,-122.7 -383.2,-184.6 -689.2,-184.6 -316.1,0 -564.1,65.7 -742.3,197.2 -115.1,84.8 -173.3,197.3 -173.3,338.9 0,129 54.4,239.1 163.2,330.1 137.8,117.6 473,239.1 1005.4,365.5 532.4,125.2 925.8,256.8 1179.9,390.9 255.5,135.3 455.3,318.7 599.5,552.6 144.1,234 216.2,522.3 216.2,865 0,311.1 -86,603.2 -259.2,875.2 -173.3,271.9 -417.3,474.3 -733.5,605.7 -316.1,132.8 -710.7,198.6 -1182.4,198.6 -686.8,0 -1214.1,-158.1 -1582.1,-475.5 -368,-316.1 -586.8,-777.8 -658.9,-1383.6z"/>
  <path id="8" class="fil0" d="M1729.1 64898.1l2172.6 0c431.3,0 751.2,17.7 962.4,53 212.4,36.7 400.9,111.3 567.8,223.9 167,113.8 306.1,264.3 417.3,452.8 111.3,188.4 167,400.9 167,634.8 0,253 -68.3,486.9 -204.9,698.1 -136.5,212.5 -322.5,370.6 -556.4,476.8 330.1,97.4 583,261.8 761.3,494.5 177,232.7 265.5,505.9 265.5,820.8 0,247.8 -56.9,488.2 -171.9,722.1 -115.1,234 -272,421.1 -471.7,561.5 -198.6,139.1 -443.9,225.1 -736,258 -182.2,19 -623.5,31.6 -1322.9,36.7l-1850.2 0 0 -5432.9zm1100.2 902.9l0 1252 718.3 0c426.2,0 691.7,-6.3 795.5,-19 187.2,-21.5 335.1,-86 442.6,-193.4 107.5,-107.5 160.6,-247.9 160.6,-422.4 0,-168.2 -46.8,-303.5 -139.1,-408.5 -92.3,-105 -230.2,-168.2 -412.3,-189.7 -108.8,-12.6 -421.1,-19 -935.9,-19l-629.8 0zm0 2155l0 1456.8 1016.7 0c394.6,0 646.3,-11.4 752.5,-32.9 163.2,-30.4 296,-102.4 398.4,-217.5 102.5,-116.4 154.3,-269.3 154.3,-462.9 0,-164.4 -39.2,-302.2 -118.9,-416.1 -78.3,-113.8 -193.4,-197.2 -342.7,-249.1 -149.2,-51.9 -474.3,-78.4 -973.7,-78.4l-886.5 0z"/>
  <polygon id="9" class="fil0" points="7901.4,70331 7901.4,64898.1 9001.6,64898.1 9001.6,70331 "/>
  <path id="10" class="fil0" d="M10550.3 67647.4c0,-554 83.5,-1019.4 249.2,-1396.2 122.6,-276.9 292.1,-526 505.8,-746.1 213.8,-220 447.7,-383.2 702,-490.7 338.9,-142.8 729.7,-214.9 1172.3,-214.9 801.8,0 1441.7,249.1 1923.5,746.1 480.6,498.3 720.8,1190 720.8,2076.6 0,879 -239,1566.9 -715.8,2062.7 -476.8,496.9 -1115.4,744.9 -1913.4,744.9 -808.1,0 -1451.9,-246.7 -1928.7,-741.1 -476.7,-493.2 -715.8,-1173.6 -715.8,-2041.2zm1130.6 -36.7c0,615.8 142.9,1082.5 427.5,1401.2 284.6,317.5 646.3,476.8 1083.9,476.8 438.8,0 798,-158 1080,-473 280.7,-316.1 421.1,-789.1 421.1,-1420.2 0,-623.5 -136.6,-1088.8 -411,-1395 -273.1,-307.3 -636.2,-460.3 -1090.1,-460.3 -452.8,0 -818.2,155.6 -1095.3,465.4 -276.9,311.2 -416.1,779 -416.1,1405.1z"/>
  <path id="11" class="fil0" d="M20885.9 68327.8l1062.3 326.3c-163.1,598.2 -435,1042.1 -814.4,1333 -379.4,289.6 -860,435 -1442.9,435 -722.1,0 -1315.3,-246.7 -1780.7,-739.8 -464.1,-493.2 -696.8,-1167.3 -696.8,-2023.5 0,-904.3 234,-1607.4 700.6,-2108.2 466.7,-500.8 1081.3,-751.2 1842.7,-751.2 665.2,0 1205.2,197.2 1620,590.5 247.8,232.7 432.5,566.6 556.4,1002.9l-1085 258c-64.5,-280.7 -198.5,-503.4 -402.2,-666.4 -204.8,-163.2 -452.8,-244.1 -743.6,-244.1 -403.4,0 -731,144.2 -981.4,433.8 -251.6,288.4 -376.9,756.3 -376.9,1403.8 0,685.4 124,1174.9 370.5,1465.7 247.9,292.1 569.1,437.6 965,437.6 292.1,0 543.8,-92.3 753.7,-278.2 210,-185.9 361.7,-476.8 452.8,-875.2z"/>
  <path id="12" class="fil0" d="M23620.8 64898.1l1100.2 0 0 2944.1c0,467.9 13.9,770.2 40.5,908 46.8,222.5 156.8,402.2 331.3,536.2 175.7,135.3 414.8,202.3 718.3,202.3 307.3,0 540,-63.2 696.8,-190.9 156.9,-127.8 250.5,-283.3 282.1,-469.2 31.6,-185.9 48.1,-493.2 48.1,-923.2l0 -3007.3 1100.2 0 0 2856.8c0,652.6 -29.1,1114.2 -88.5,1383.6 -59.5,269.3 -168.2,497 -327.5,682.9 -158.1,185.9 -370.5,332.6 -636.2,442.6 -266.8,110 -613.3,165.7 -1042,165.7 -517.3,0 -909.3,-59.5 -1176.1,-179.6 -266.8,-120.1 -478.1,-275.7 -633.6,-467.9 -155.6,-192.2 -256.8,-392 -306.1,-603.2 -72,-311.1 -107.4,-771.4 -107.4,-1379.8l0 -2901z"/>
  <polygon id="13" class="fil0" points="29861.4,70331 29861.4,64943.5 30961.6,64943.5 30961.6,69412.8 33685.7,69412.8 33685.7,70331 "/>
  <polygon id="14" class="fil0" points="35855.4,70331 35855.4,65816.1 34246.8,65816.1 34246.8,64898.1 38556.7,64898.1 38556.7,65816.1 36955.6,65816.1 36955.6,70331 "/>
  <path id="15" class="fil0" d="M39999.2 64898.1l1100.2 0 0 2944.1c0,467.9 13.9,770.2 40.5,908 46.8,222.5 156.8,402.2 331.3,536.2 175.7,135.3 414.8,202.3 718.3,202.3 307.3,0 540,-63.2 696.8,-190.9 156.9,-127.8 250.5,-283.3 282.1,-469.2 31.6,-185.9 48.1,-493.2 48.1,-923.2l0 -3007.3 1100.2 0 0 2856.8c0,652.6 -29.1,1114.2 -88.5,1383.6 -59.5,269.3 -168.2,497 -327.5,682.9 -158.1,185.9 -370.5,332.6 -636.2,442.6 -266.8,110 -613.3,165.7 -1042,165.7 -517.3,0 -909.3,-59.5 -1176.1,-179.6 -266.8,-120.1 -478.1,-275.7 -633.6,-467.9 -155.6,-192.2 -256.8,-392 -306.1,-603.2 -72,-311.1 -107.4,-771.4 -107.4,-1379.8l0 -2901z"/>
  <path id="16" class="fil0" d="M46209.4 70331l0 -5432.9 2310.5 0c580.4,0 1002.8,49.2 1265.9,146.6 264.3,97.4 474.2,270.7 632.3,519.8 158.1,250.4 237.7,535 237.7,856.2 0,408.5 -118.8,744.9 -357.9,1010.4 -239,265.6 -595.6,432.5 -1071.1,502.1 236.5,137.9 431.3,289.6 584.3,455.3 154.2,165.6 361.7,460.3 622.2,882.7l662.6 1059.7 -1311.4 0 -786.6 -1186.2c-282.1,-421.1 -475.5,-686.7 -580.5,-796.7 -103.7,-108.8 -213.7,-184.7 -330.1,-225.1 -117.6,-40.5 -302.2,-60.7 -555.2,-60.7l-222.5 0 0 2268.8 -1100.2 0zm1100.2 -3133.8l811.9 0c526.1,0 853.7,-22.8 985.1,-67 130.3,-44.3 234,-121.4 307.4,-230.1 74.5,-108.8 111.2,-245.4 111.2,-408.5 0,-183.4 -49.3,-330.1 -146.6,-443.9 -97.4,-112.6 -235.3,-183.4 -412.3,-212.5 -89.8,-12.6 -356.6,-19 -800.5,-19l-856.2 0 0 1381z"/>
  <path id="17" class="fil0" d="M57313.8 70331l-1185 0 -469.2 -1236.8 -2178.9 0 -451.5 1236.8 -1163.5 0 2109.5 -5432.9 1162.2 0 2176.4 5432.9zm-2010.8 -2155l-755 -2010.8 -733.5 2010.8 1488.5 0z"/>
  <polygon id="18" class="fil0" points="58660.2,70331 58660.2,64943.5 59760.4,64943.5 59760.4,69412.8 62484.5,69412.8 62484.5,70331 "/>
  <polygon id="19" class="fil0" points="63995.3,70331 63995.3,64898.1 68016.9,64898.1 68016.9,65816.1 65095.5,65816.1 65095.5,67022.6 67811.9,67022.6 67811.9,67940.8 65095.5,67940.8 65095.5,69412.8 68123,69412.8 68123,70331 "/>
  <path id="20" class="fil0" d="M69498.5 68570.5l1070 -106.2c64.4,357.9 193.4,619.6 389.5,787.9 196,168.1 460.3,251.6 792.9,251.6 351.6,0 617.1,-74.6 795.5,-223.8 178.3,-149.3 268.1,-323.8 268.1,-523.6 0,-129 -37.9,-237.7 -112.6,-328.8 -74.6,-89.8 -206.1,-168.2 -393.3,-234 -127.7,-45.5 -418.6,-123.9 -873.9,-237.7 -585.5,-146.7 -996.5,-326.3 -1233,-540 -332.7,-299.7 -498.3,-665.2 -498.3,-1096.4 0,-276.9 78.4,-537.5 233.9,-779 156.9,-241.5 381.9,-424.9 676.7,-551.4 294.6,-126.4 648.7,-189.7 1066.1,-189.7 679.1,0 1191.3,150.4 1534,452.8 344,302.2 523.6,704.4 541.3,1209l-1100.3 37.9c-46.7,-280.8 -146.6,-481.9 -299.7,-604.6 -153,-122.7 -383.2,-184.6 -689.2,-184.6 -316.1,0 -564.1,65.7 -742.3,197.2 -115.1,84.8 -173.3,197.3 -173.3,338.9 0,129 54.4,239.1 163.2,330.1 137.8,117.6 473,239.1 1005.4,365.5 532.4,125.2 925.8,256.8 1179.9,390.9 255.5,135.3 455.3,318.7 599.5,552.6 144.1,234 216.2,522.3 216.2,865 0,311.1 -86,603.2 -259.2,875.2 -173.3,271.9 -417.3,474.3 -733.5,605.7 -316.1,132.8 -710.7,198.6 -1182.4,198.6 -686.8,0 -1214.1,-158.1 -1582.1,-475.5 -368,-316.1 -586.8,-777.8 -658.9,-1383.6z"/>
  <path class="fil0" d="M14001.7 74445.2l267.9 0 0 3669.3c0,391.4 -67.3,705.7 -201.8,943 -134.5,237.3 -318,409.7 -550.3,517.4 -231.2,107.7 -490.5,161.5 -777.9,161.5 -288.7,0 -547.9,-53.8 -779.1,-161.5 -229.9,-107.6 -412.2,-280.1 -546.7,-517.4 -133.3,-237.3 -200.6,-551.6 -200.6,-943l0 -3669.3 276.4 0 0 3669.3c0,324.1 55.1,587.1 165.2,785.3 110,199.3 259.3,344.9 447.6,436.7 188.4,92.9 401.3,138.1 637.3,138.1 242.1,0 457.5,-45.3 647,-138.1 189.6,-91.8 340.1,-237.4 450.1,-436.7 110,-198.1 165.1,-461.2 165.1,-785.3l0 -3669.3z"/>
  <path id="1" class="fil0" d="M17698 77490.7l-1294 0 0 -265.4 1294 0c281.3,0 508.8,-55 682.4,-166.3 173.7,-111.3 299.7,-260.6 380.4,-447.7 79.5,-187.1 119.9,-395 119.9,-621.4 0,-234.8 -40.4,-448.9 -119.9,-643.3 -80.7,-194.4 -206.6,-351 -380.4,-468.5 -173.7,-116.2 -401.2,-174.9 -682.4,-174.9l-1168.1 0 0 4959.7 -272.8 0 0 -5217.8 1440.9 0c318,0 584.6,63.6 801.2,192 216.5,127.2 379.1,307 490.4,537 111.3,231.2 166.3,500.3 166.3,808.5 0,310.7 -55,578.5 -163.9,806 -110,226.2 -272.8,400 -488,521.1 -215.3,121.1 -483.1,181 -806,181z"/>
  <path id="2" class="fil0" d="M23407.5 79401.2l0 261.8 -2321.4 0 0 -261.8 2321.4 0zm-2213.8 -4956l0 5217.8 -280.1 0 0 -5217.8 280.1 0z"/>
  <path id="3" class="fil0" d="M26459.3 74664.1l-1555.8 4998.9 -289.9 0 1662.2 -5217.8 215.3 0 -31.8 218.9zm1465.3 4998.9l-1552.1 -4998.9 -28.2 -218.9 211.6 0 1658.5 5217.8 -289.9 0zm-362 -1784.5l0 258 -2278.6 0 0 -258 2278.6 0z"/>
  <path id="4" class="fil0" d="M34288.5 79663l-1031.1 0 3.7 -261.8 1027.4 0c318,0 594.4,-69.8 828,-211.6 234.9,-140.7 415.9,-343.7 544.3,-609.1 129.7,-265.5 194.5,-584.7 194.5,-960.2l0 -1139.9c0,-281.4 -37.9,-532.1 -111.3,-752.3 -74.6,-220.1 -179.8,-406 -316.8,-558.9 -138.2,-152.9 -300.9,-269.1 -491.7,-347.3 -189.6,-79.5 -401.2,-118.7 -636,-118.7l-1060.5 0 0 -258 1060.5 0c270.2,0 517.4,45.3 740,134.5 223.8,89.3 417.1,222.6 578.5,397.6 162.6,176.1 287.4,389 375.4,642.1 86.9,251.9 129.7,540.6 129.7,868.4l0 1132.6c0,325.4 -42.7,614 -129.7,868.4 -88,254.4 -212.8,469.7 -376.7,643.4 -163.9,174.9 -358.3,307 -582.2,396.3 -225,89.3 -473.3,134.5 -746,134.5zm-938.1 -5217.8l0 5217.8 -272.8 0 0 -5217.8 272.8 0z"/>
  <path id="5" class="fil0" d="M41161.1 77251l0 1829.7c-47.7,67.3 -134.5,151.7 -258,254.4 -124.8,102.7 -291.1,195.7 -499,277.7 -207.9,81.9 -461.2,123.5 -759.6,123.5 -255.6,0 -488,-45.3 -697.2,-135.7 -207.9,-90.5 -387.7,-223.9 -538.1,-400 -150.4,-174.9 -266.6,-390.1 -348.6,-644.6 -80.7,-254.4 -121.1,-544.3 -121.1,-872.1l0 -1328.3c0,-318 37.9,-599.3 112.5,-845.2 75.9,-245.8 184.7,-453.8 330.2,-622.5 144.4,-170 318,-298.4 521.1,-385.4 203,-86.8 430.5,-130.8 683.7,-130.8 322.9,0 596.9,58.7 820.8,176.1 225,117.5 399.9,287.4 527.1,511.3 126,223.8 201.8,496.6 226.2,817l-276.4 0c-25.7,-256.8 -88.1,-477 -184.7,-662.9 -96.7,-185.9 -234.8,-329 -413.5,-430.5 -179.8,-101.5 -412.2,-152.9 -699.6,-152.9 -218.9,0 -413.4,37.9 -583.4,115 -170,75.8 -313.1,188.3 -430.5,336.3 -116.2,148 -205.5,327.8 -266.6,540.7 -61.2,212.8 -91.7,455 -91.7,726.5l0 1335.6c0,285 33,537 99,758.3 66,220.2 160.3,407.3 285,561.5 123.6,154.1 274,271.5 450.1,351 174.9,79.5 373.1,119.8 592,119.8 232.4,0 433,-31.8 604.2,-94.1 171.2,-63.6 309.5,-135.8 417.1,-215.3 107.6,-79.4 183.5,-144.3 226.3,-192l0 -1460.4 -1261.1 0 0 -261.8 1533.7 0z"/>
  <polygon id="6" class="fil0" points="43524.2,74445.2 43524.2,79663 43247.8,79663 43247.8,74445.2 "/>
  <path id="7" class="fil0" d="M51529.6 79404.9l0 258 -2705.5 0 0 -243.4 1437.2 -1964.3c183.5,-247.1 331.5,-467.2 444,-661.7 112.6,-194.4 193.3,-374.2 243.4,-538.1 50.1,-163.9 75.8,-320.5 75.8,-470.9 0,-232.4 -37.9,-434.1 -112.5,-607.9 -75.8,-173.7 -187.1,-308.2 -333.9,-403.6 -146.7,-95.4 -329,-143.1 -546.7,-143.1 -205.5,0 -386.4,56.3 -543,167.6 -155.3,112.5 -277.7,266.6 -364.5,461.1 -88.1,195.7 -130.9,418.3 -130.9,669.1l-272.7 0c0,-286.2 53.8,-546.7 161.5,-781.6 107.6,-234.8 259.2,-421.9 456.2,-562.6 198.1,-140.7 429.3,-211.6 693.5,-211.6 260.6,0 485.6,53.9 676.4,162.6 189.7,108.9 335.2,267.9 437.9,475.8 102.7,208 154.1,462.3 154.1,763.2 0,157.8 -24.4,316.8 -73.4,478.2 -48.9,161.5 -114.9,324.2 -200.6,485.6 -84.4,162.7 -179.8,322.9 -286.2,480.8 -106.3,157.8 -215.2,313.1 -327.8,465.9l-1257.3 1720.9 2375.3 0z"/>
  <path id="8" class="fil0" d="M55734.7 76588.1l0 932c0,354.7 -30.5,670.2 -89.3,945.5 -59.9,274 -146.7,506.4 -260.5,696 -113.8,189.6 -253.2,332.7 -419.5,429.3 -165.2,96.7 -356,145.6 -571.2,145.6 -170,0 -324.1,-30.5 -463.6,-93 -140.6,-62.3 -264.2,-155.3 -373,-277.6 -108.9,-123.6 -200.7,-274 -276.5,-452.6 -74.6,-179.8 -132.1,-385.3 -171.2,-616.5 -39.1,-231.1 -59.9,-490.4 -59.9,-776.7l0 -932c0,-354.7 30.5,-670.2 91.7,-945.5 61.2,-273.9 149.2,-505.2 262.9,-694.7 115,-188.4 254.4,-331.5 419.6,-429.4 165.1,-97.9 353.5,-146.7 566.2,-146.7 170,0 325.4,31.8 466,95.4 140.7,62.3 265.4,155.3 374.2,276.4 108.9,122.3 200.6,272.8 273.9,450.1 74.6,177.4 130.9,382.8 170,616.4 40.4,232.4 59.9,491.7 59.9,777.9zm-276.4 941.7l0 -962.5c0,-238.5 -13.5,-458.7 -42.8,-659.3 -28.1,-200.6 -70.9,-379.1 -124.8,-536.9 -55,-157.8 -126,-291.1 -211.5,-401.2 -86.9,-110.1 -187.2,-193.3 -301,-250.8 -114.9,-57.5 -244.6,-85.6 -387.7,-85.6 -178.5,0 -335.1,45.3 -469.7,134.5 -133.3,89.3 -244.6,217.8 -332.7,386.5 -88.1,167.5 -155.3,370.5 -200.6,609.1 -45.3,237.3 -68.5,505.2 -68.5,803.6l0 962.5c0,237.4 14.6,455 42.8,654.4 29.4,199.3 72.1,379.1 129.7,538.1 57.5,160.2 129.6,297.3 216.5,410.9 86.8,112.6 187.1,199.4 300.9,256.9 113.8,58.7 242.1,88.1 385.3,88.1 181,0 338.8,-46.4 470.9,-138.2 133.3,-91.7 243.3,-223.8 331.4,-395 89.3,-172.5 154.1,-377.9 197,-616.5 44,-238.5 64.8,-505.2 64.8,-798.7z"/>
  <path id="9" class="fil0" d="M60125.7 79404.9l0 258 -2705.5 0 0 -243.4 1437.2 -1964.3c183.5,-247.1 331.5,-467.2 444,-661.7 112.6,-194.4 193.3,-374.2 243.4,-538.1 50.1,-163.9 75.8,-320.5 75.8,-470.9 0,-232.4 -37.9,-434.1 -112.5,-607.9 -75.8,-173.7 -187.1,-308.2 -333.9,-403.6 -146.7,-95.4 -329,-143.1 -546.7,-143.1 -205.5,0 -386.4,56.3 -543,167.6 -155.3,112.5 -277.7,266.6 -364.5,461.1 -88.1,195.7 -130.9,418.3 -130.9,669.1l-272.7 0c0,-286.2 53.8,-546.7 161.5,-781.6 107.6,-234.8 259.2,-421.9 456.2,-562.6 198.1,-140.7 429.3,-211.6 693.5,-211.6 260.6,0 485.6,53.9 676.4,162.6 189.7,108.9 335.2,267.9 437.9,475.8 102.7,208 154.1,462.3 154.1,763.2 0,157.8 -24.4,316.8 -73.4,478.2 -48.9,161.5 -114.9,324.2 -200.6,485.6 -84.4,162.7 -179.8,322.9 -286.2,480.8 -106.3,157.8 -215.2,313.1 -327.8,465.9l-1257.3 1720.9 2375.3 0z"/>
  <path id="10" class="fil0" d="M62169.7 77023.5l-211.6 -68.5 211.6 -2509.8 2178.3 0 0 265.5 -1941 0 -165.2 1972.9c73.4,-72.2 188.4,-144.3 343.7,-215.3 155.3,-72.1 331.5,-107.6 527.2,-107.6 193.2,0 369.4,36.7 528.4,111.3 158.9,73.4 296,181 413.4,322.9 117.5,140.6 206.7,311.9 269.1,514.9 62.4,203 93,434.1 93,692.3 0,250.7 -24.5,480.7 -73.4,691 -49,210.4 -124.8,393.8 -227.5,550.4 -102.7,156.6 -234.8,277.7 -397.6,364.5 -162.6,85.6 -357.1,128.4 -584.6,128.4 -173.7,0 -337.6,-29.4 -490.5,-88 -152.9,-58.7 -288.6,-148 -408.5,-266.7 -119.9,-119.8 -216.5,-270.2 -289.9,-452.5 -74.6,-182.2 -119.9,-395.1 -137,-638.5l261.8 0c24.4,255.7 80.7,472.2 168.8,649.5 88,177.3 207.9,310.6 358.3,402.3 150.4,90.5 329,135.8 537,135.8 170,0 318,-31.8 445.2,-95.4 126,-62.3 232.4,-156.6 316.8,-281.3 84.4,-123.6 148,-277.7 189.6,-459.9 41.7,-182.2 62.4,-393.8 62.4,-632.4 0,-195.7 -23.2,-377.9 -69.8,-545.6 -46.4,-166.3 -116.2,-313.1 -207.9,-437.8 -91.7,-126 -204.3,-223.8 -336.4,-292.3 -133.3,-69.8 -283.7,-104 -453.8,-104 -221.4,0 -401.2,35.5 -539.4,105.2 -137,71 -260.5,166.3 -370.5,288.7z"/>
  <polygon id="11" class="fil1" points="31401.9,74445.2 29563.6,80110.7 29306.7,80110.7 31141.4,74445.2 "/>
  <polygon id="12" class="fil1" points="47291.5,74445.2 45453.1,80110.7 45196.3,80110.7 47030.9,74445.2 "/>
  <path class="fil2" d="M25608 15994.7c208.5,86.1 431.5,156.9 621.1,275.1 135.4,84.5 409.7,345.1 570.8,317 556.7,-97.4 -167.3,-979.1 -328.3,-1145.3 -352,-477.3 -1423.3,-925 -2017.7,-1023.4 -2441,-404.1 -4858.2,1377.2 -7249.4,1175.9 -229.7,-19.3 -461.9,-115.3 -680.4,-97.9 -264.2,-238.1 -1137.4,-226.9 -2011.9,-1377.4 -166.8,-219.4 -250,-551.7 -437.1,-726.8l-65.4 -303.2c-573.1,-1070.4 -414.5,-3963.3 -401.7,-5246.4 9.5,-952.2 5.8,-1904.5 14.7,-2856.5 3.5,-380 142,-2534 97.7,-2672.5 335.4,-540.5 46.4,-1056.3 945.6,-1788.6 189,-153.9 447.1,-238.1 457.8,-464.4 -234.6,-65.4 -3661,-82.5 -3961.7,-26.6l-52.7 174.5c181.9,146.6 379.6,214.3 574.1,381.2 170,145.8 337.9,373.5 512.7,491.2 43.9,315.4 321.3,560.2 457.1,1873.4 105.9,1023.9 185.4,6398.8 34.7,6765.9 -334.2,-158.1 -540.4,-814 -832.4,-963.6 -99.2,-295.5 -421.8,-556.1 -569.6,-861.7 -160,-63.9 -967.1,-1234.9 -1161,-1487.7 -209.7,-273.4 -995.3,-1364.9 -1192.7,-1491.4 -64.6,-289.9 -681.9,-809.8 -781.9,-1142.7 -348.1,-191.5 -1431.5,-1998.4 -1783.1,-2208.2 -189.5,-397.9 -861.4,-1163.8 -1158.4,-1534.6l-4362.1 -29.9 -1.2 256.7c658.7,329.4 1347.9,731.5 1640,1456.8 377.9,411 247,3051.7 247.2,3739.7 0.4,1353.6 1.6,2696.9 -17.6,4050.8 -20.1,488.5 -23.6,1000 -75.2,1484 -34.2,320.8 -232.4,1095.2 -219.6,1315.6 -195.4,215.9 -264.7,598 -560.2,862.7 -340.1,304.6 -880.5,404.4 -760.8,648.8 243.7,218 1634.6,89.6 2032.1,92.3 529.2,3.5 1622.6,106.4 2054.8,-77.8 -74.4,-259 -59,-105 -151.9,-274.9 -449.7,-133.8 -943.7,-721.8 -1056.9,-1193.5 -541.8,-786.3 -254.6,-7803.9 -335,-9311 154.4,103.6 187.3,184 294.7,336.1 1098.1,1580.5 2407.8,3107.3 3579.7,4641.5 485.9,636.2 3247,4362.1 3644.7,4578.9 105.2,331.7 627.9,682 823.8,1004.3 137.1,46.5 96,24.8 116.5,127 255.4,116.7 421.1,392.1 638.4,596.5 173.8,163.5 462.5,381 668.3,527.3 443.4,314.9 1040.6,720.1 1564.2,874.1 249,295.7 1998.9,516.5 2441.1,535 914.6,38.3 1906.8,-124.1 2812,-262.9 2121.3,-325.4 3249.8,-613.6 5381.9,-13.2z"/>
  <path class="fil2" d="M45426.2 5622.9c192,224.2 446.1,586.6 549.3,868.8 176.2,110.7 56.2,167.8 311.5,197.4 111.3,-234.1 193.1,-944.7 225.3,-1235.7 79.1,-254 143.8,-673.9 120.8,-935.2 -416.7,-436.6 -2095.2,-700 -2729.3,-744.6 -713,-50.1 -2547.3,-15.2 -3035.4,496.9 -179.5,1.6 -355.8,145.7 -516.5,253.8 -564.9,310.8 -1117.4,1208.7 -1209.2,1886.6 -62.8,463.1 3.4,924.7 160.7,1356.6 163,447.7 510.9,710.1 619.5,962.8 228.3,103.6 690.5,479.3 984.3,652.3 277.5,163.3 816.6,446.1 1106.1,538.3l1356.6 606.3c577.9,234.2 1304.1,677.3 1580.6,1235.8 263.2,519.7 -73.1,1185.8 -547.4,1395.4 -261.3,335.8 -1184,376.6 -1613.7,324.4 -577.1,-70.2 -1022.3,-244.3 -1504.1,-531.2 -1540.2,-917.3 -1548.9,-2056.7 -1953.7,-2138.3 -156.2,178.7 -552.6,2288.7 -469.7,2474.4 330.5,363.9 2334.8,768.2 2912.2,818.1 2043.1,176.7 1967.8,-102.6 3409.6,-398.5 244.4,-222.1 791.7,-402.4 1193.1,-793.7 354.1,-345.1 708.7,-814.4 821.4,-1331.6 162.7,-248.9 106.1,-1080.3 13.8,-1377.8 -114.2,-368.5 -354.8,-765.2 -630.9,-1041.1 -436.9,-436.6 -1491.6,-1087.8 -2085.3,-1228.3l-1216.7 -519.6c-200.2,-201.9 -840.8,-296.6 -1016,-543.2 -311.7,-123.2 -532.1,-414.7 -681.6,-466.2 -206.2,-419.9 -304.4,-454 -258.1,-981 280,-862.3 1281.6,-1215.6 2147.7,-1087.8 765.7,113.1 1528.3,695.5 1955.1,1285.9z"/>
  <path class="fil2" d="M68385.1 48134.4c-178.6,54.9 -1778,-190.6 -2147.1,-212.4 -791.4,-46.6 -1681.2,-45.9 -2468.7,30.9 -719.8,70.2 -1397.2,183.7 -2056.9,454.8 -966,397.2 -1546,812.5 -2096.5,1702 -180.1,290.9 -282,585.6 -362.3,922.3 -590.5,2477.1 1104.3,4611 3560.2,5000.7 660,301.4 2632.9,13.7 3343.8,-236.4 608.2,-214 1955.9,-1097.1 2231.4,-1640.6 51,-53.2 -93.4,-136 127.7,-12.6l69.8 1754.1 3634.4 22.9c-142.3,-1728.4 56.1,-6176.7 -1.9,-8333.3 -16,-593.7 -81.7,-1422.2 -483.2,-2246.4 -1431,-3419 -7119.8,-3507.4 -10010.8,-2415.9 -425.3,153.5 -1524.8,619.3 -1825.4,918.9 68.7,269.5 1053.2,2369.1 1208.5,2591.1 1113.6,-453.8 1714.9,-867.9 3047.1,-1090 581.1,-96.9 1218.4,-126.5 1805.2,-52.5 1569.2,197.9 2570.4,1147.6 2425,2842.3zm21.1 2060.6c66.8,2195.5 -1020.7,2419.3 -1311.7,2814.5l-664.1 257.5c-843.2,305.7 -2223.1,299.3 -2935.3,-318 -1404.4,-1217.4 307.3,-2546.9 218,-2400 632.1,-639.6 3569.2,-378.5 4693.1,-354z"/>
  <path class="fil2" d="M50312.3 2960.3c-200.5,79.9 -626.2,385.4 -851.9,519.5 -235,139.6 -744.3,330.4 -889.5,482.5 -231.9,1.2 -1197.6,195.1 -864.5,629.2 136.1,177.4 1268.1,81.6 1534.7,90.8 -27.3,2144 -96.5,4515.1 -1.4,6641.8 37,825.7 338.9,1807.9 1036.7,2297.2 727.7,510.4 1896.9,727.9 2747.4,430.5l270 -13.9c187.8,-152.4 664.5,-213.3 1329.5,-720.1 266.2,-202.8 1066.4,-743.6 683.5,-1087 -242.1,-57.6 -503.9,195.8 -732.4,311.4 -1073.8,543.5 -1999.6,105.4 -2166.3,-783.5 -224,-377.2 -121.6,-2771.6 -120.1,-3397.1 3,-1185.2 -45.2,-2442.4 -2.5,-3616.6 505.6,-110.4 2292.4,112.8 2562.9,-122.6 167.1,-26.4 293.8,-445.9 220.3,-616 -372.3,-153.6 -2185.3,-2.4 -2751.4,-58.9l-5.1 -2676.4c-214.7,-89.4 -134,-54 -343.5,-41.4 -82.6,164 -623.7,777.8 -767.9,926.9 -216.8,224.1 -747.2,603.5 -888.5,803.6zm1792.4 7175l0.4 -0.1 -0.4 0.1 -0.8 2.3 0.8 -2.3zm2.1 16.8c-0.9,-0.5 -1.8,-1.2 -2.4,-2 0.6,0.8 1.5,1.4 2.4,2zm-2.4 -2c-1.7,-2.1 -2.3,-5.2 -1.3,-9.6 -1,4.3 -0.5,7.5 1.3,9.6z"/>
  <path class="fil2" d="M31828.9 53801.7c224.1,-236.8 721.8,-977.9 889.5,-1102.7 10.5,-216.3 629.9,-1131.9 817,-2350.3 286.3,-1864.8 -105,-2390.6 -65.3,-2968.5 -184.9,-255.1 -248.4,-710.7 -392.7,-1019.1 -138.4,-296 -271.8,-613.2 -469.7,-873.4 -235.8,-523.6 -1162.4,-1424.2 -1602.3,-1761.4 -784.6,-601.4 -1330.2,-732.6 -2149.7,-1135.6 -918.4,-203.9 -1533.6,-371.5 -2511.7,-391.4 -540.2,-11 -2068.7,65.7 -2515.2,310.5 -391.1,88.8 -1424.6,563.6 -1621.2,568.5 -81.7,170.6 -365.6,243.7 -703.4,473.4 -526.1,357.7 -1620.7,1281.7 -1795.6,1820.1 -288.4,158.7 -663.3,1122.5 -799,1469 -474.7,1212.5 -517.3,2808.3 -173.1,4066.1 186.1,680.3 410.7,1060.3 668.7,1665.4 497.9,626.4 753.5,1135.7 1399.4,1676 538.1,450.2 1251.6,923.6 1898.7,1200.7 1575.7,674.7 3570.2,952.4 5260.7,484.5 1294.4,-241.2 3094.4,-1135.6 3864.9,-2131.8zm-5162.8 -8480.8c184.6,143.4 650.4,207.1 922.5,317.2 616.1,284.9 920,527.8 1342.6,1018.2 473.4,549.3 624.1,1396.2 802.5,1611.5 -59,570 122.4,1040.7 -23.6,1783.8 -48.2,244.9 -129.8,505.1 -220.4,735.5 -81.8,208.2 -261.3,447.4 -289.8,651.6 -185.9,131.5 -415.1,463.2 -608,643.8 -244.5,228.9 -485.6,334.9 -710.3,530 -504.7,79.5 -1554.4,846 -3253.8,108.4 -215.7,-93.7 -711.9,-432.7 -850.7,-457.8 -231.8,-351.1 -594.4,-589 -864,-1086.9 -387.8,-716 -797.7,-2719.4 -282.1,-3322.4 119.8,-513.7 492.6,-1118.5 852.8,-1468 159.5,-154.7 424.6,-370.4 624.1,-497.8 220.1,-140.5 529.2,-234.5 695.6,-399.8 265.1,16 566.8,-125 845.3,-156.8 341.9,-39.1 706.3,37.5 1017.2,-10.7z"/>
  <path class="fil2" d="M36022.3 33246.3c241.4,-92.3 581.2,-125.4 765.5,-276.3l498.4 -111 42.2 -11643.7 -3486.6 42.7 -27.6 12067.2c880.7,14.2 1343.8,78.2 2208.1,-78.9z"/>
  <path class="fil2" d="M31279.9 9755.1c1458.7,-449.1 3408.2,-1023.7 4693,-1684.7 493.5,-254 1113.2,-675.7 1422.2,-1126 315.9,-460.1 424.8,-1586.1 -32.2,-1879.4 -109.1,-296.6 -583.7,-643 -887.4,-759.5 -192.8,-299.7 -1606.5,-552.7 -2024.4,-573.5 -867.7,-43.2 -1511.1,68.7 -2319.9,333 -663.3,216.8 -1204.2,482.8 -1756.2,896.8 -326.1,244.7 -1167.6,1227.6 -1349.7,1298.3 -45.9,262.6 -382.5,707 -507.2,1002.2 -542.5,1284 -556.7,2819.2 -38.6,4111.4 -7.3,0.6 302.6,575.4 366.2,670.6 170.1,254.8 285.4,387.5 488.5,601.4 294.5,310.1 788.5,752.1 1223.4,910.2 472.7,374.3 1665.6,584.5 2282,595 442.1,7.5 2148.9,-213 2389.5,-480.9 702.7,-194.9 3159.5,-1914 2695.3,-2553.3 -312.8,-55.4 -310.3,150.2 -544.5,330.5 -169.6,130.6 -364.5,282.9 -574.4,341 -202.7,234.7 -1120.4,532.1 -1458.1,594.6 -571.2,105.9 -1364.8,54.8 -1906.7,-150.8 -1085.9,-269.8 -2021.7,-1391.3 -2160.9,-2477zm2737.3 -5404.8c173.2,177.8 467.7,217.4 696.9,474.2 251,281.2 267.9,491.7 395.9,754.8 52.8,643.2 -6.1,697.4 -162.4,1276 -43.6,7 -515.9,660.7 -660.7,772.3 -735.8,567.7 -2575.8,1505.9 -3161.3,1452.7 -155.9,-816.4 -81,-1750.5 151.8,-2544.6 148,-505.1 661,-1576.7 1161.7,-1691.7 73.7,-186.2 414.7,-321 637.7,-394.8 385.4,-127.7 628,-37.9 940.3,-98.8z"/>
  <path class="fil3" d="M65337.5 38762.9c-414.6,114.3 -1708.5,4.4 -2627,-99.5 -295.7,-30.6 -587,-67.8 -869.1,-111.1 -783.7,-120.1 -1601.4,-298.8 -2351.4,-536.8 -218.1,-69.2 -484.3,-122.2 -645.9,-228.2 -71.5,-24.5 -142.8,-49.2 -214.2,-74.2 -604.6,-169.2 -2635,-956.7 -2834.1,-1098 -278.7,-63.2 -370.2,-117.7 -680.7,-109.4 17.8,448.5 537.2,821.8 862.7,1070.4 264.6,202 965.9,584.9 1111.2,778.8 213.4,19.8 1321,624.7 1471.2,799.4 -279.8,574 -1752.7,146.1 -2260.9,81.9l15.8 -31.6c-607.1,-124 -1401.3,-538 -1949.3,-844.7 -289.6,-162.2 -1530.5,-955.4 -1712,-953.7 -294.6,-430.4 -2700.5,-1361 -3295.3,-1572.2 -1417.5,-503.4 -2506.6,-668.1 -4002.6,-773.7 -3976.3,-281 -7699.8,921 -11425.2,1855.1 -2536.6,666.1 -3054.2,769.6 -5764.2,734.1 -535.2,-27.9 -1606.9,-221.7 -2039.1,-180.5 -190.7,-137 -2207.2,-403.6 -2750.2,-680 -450.4,-78.4 -1264.9,-405.7 -1697.2,-596.2 -581.2,-256.2 -1474.8,-594.4 -1929.8,-1004.5 276,79.5 510.4,222.3 773.9,342 1894.9,861 4859.8,1335.6 6914.2,1305.5 1024.2,-15 2203.3,-135.8 3205.8,-334.1 3481.5,-688.9 6792.9,-1997.3 10210.2,-2935 299.6,-82.2 2154,-481 2217.3,-521.7 635.7,-63.9 1320.2,-219 1998.3,-295.2 680.4,-76.3 1415.6,-138 2104.4,-145.2 613.9,-6.4 3824,119.3 4136.7,401.5 451.9,-32.8 3570.8,697.4 3858.8,927 231.5,-4.4 2417.7,755.6 2882.6,883.8 1007.1,277.7 1997.9,561.8 3020,790.3 1633.8,365.4 3457,600.1 5129.2,404.7 598,-69.8 1125.3,-209.4 1695.4,-292.9 94.5,-69.8 733.1,-238.8 875.4,-230.9 285.2,-248.7 869.8,-252.2 1137.1,-534.3 270.6,-19.9 1340,-628.1 1589.2,-813.7 328.2,-244.5 1123.2,-916.6 1416,-1049.2 40.7,-99.9 1035.7,-1159.3 1221.7,-1403.5 394.6,-518.4 871.6,-1515.2 1084,-1564.4 174.9,349.6 33.9,1151.7 -6.7,1558.2 -79.3,171.7 -187.8,685.7 -266.9,919.2 -97.3,287.5 -214.7,626.4 -348.5,895.2 -141.1,283.4 -696.9,1367.3 -932.7,1458.1 -115.9,256.9 -413.2,560.8 -615.7,756.6l-611.8 584c-288.4,129.4 -866.9,598.4 -1211.4,795.4 -462.6,264.4 -783.1,477.2 -1279.3,694.8 -44.3,19.4 -99.5,41.9 -163.4,66.6l-0.5 0.3 -1.7 0.6c-69.3,26.8 -148.8,56.3 -236.5,87.6 -1271.8,462.9 -2163,654.4 -3114.6,750.9 -170.7,26.7 -367.5,41.4 -548,45.6l-0.2 0.1c-176.8,11.9 -358.9,20.8 -545,26.6zm-54881.6 -8578.9c448.6,-112 1307.9,-557.7 1573,-893 -353.5,-217.5 -664,-432.8 -1059.7,-615.3 -270.1,-124.6 -1033.1,-364.8 -1192.6,-492.1l-236.6 27.7c-160.7,-114.4 -463.1,-170.1 -690.2,-172 -421.9,-203.3 -1716.7,-138.2 -2207.6,-51.7 -430.3,75.9 -1517.1,461.5 -1796.8,458.4 571.2,778.3 1273.9,1329 2224,1630.1 902.6,285.9 2516.1,508.7 3386.4,107.9zm-1436.2 4587.6c127.8,63.1 836.8,212.3 1074.7,285.2 334.4,102.6 674.3,230.9 999.8,348.6 404.2,146 1728.9,521.7 1955.8,763.8l105.9 25.8 134.7 -8c-547.9,-577.2 -928.6,-939.8 -1545.6,-1431.9 -376.8,-300.5 -1452.2,-1030 -1884,-1156.3 -166.5,-151.1 -66.9,-4.2 -104.4,-152.3l-1691.1 -4.3 -986.8 -148.5 -571.3 -136.8c-514.3,-110.2 -1131.9,-332.7 -1620.4,-533 -495.7,-203.4 -889.3,-520.7 -1331.8,-734.4 -258.2,-246.1 -574.3,-422.8 -843.6,-671.4 -142,-131.2 -651.5,-654.2 -749.9,-710.7 -801.2,376 -1663,1751.8 -1879.8,2599.1 -293.9,1148.4 204.6,2588.6 1502.6,2811.2 878.4,150.7 2479.3,-742.7 3421.2,-1008.8 1831.3,-517.4 2406.6,-283.5 4014,-137.3z"/>
  <path class="fil4" d="M45538.1 40055.8c1664.6,136.5 3103.1,-962.9 2536.4,-2323.2 -287.1,-689.2 -1136.6,-1119.5 -1806.4,-1357.7 -2329.1,-828.4 -5933.1,-490 -8196.5,148.8 -6676.8,1696 -8367.3,2848.3 -15653.9,2991.6 -273.2,-166.4 -2052.9,-269.2 -2564,-392.1 252.7,442.8 3068.3,1189.9 3683.1,1254.3 1948.8,479.2 5117.7,709.1 7110,544.4 1174.8,-97.1 2245.1,-232.2 3405.2,-416.7 1121.3,-178.4 2213.6,-510 3306.5,-674.5l297.4 -80.1c1353.3,-218.8 2479.5,-358.4 3875.4,-311.3 631.7,21.3 1254.8,118.9 1874.9,222.8 243.3,40.7 876.7,199.3 1322.5,264.6 263.4,38.6 575.1,110 809.4,129.3z"/>
  <path class="fil2" d="M39988.5 32150.7l-8.7 -10933c866.5,14.3 2612,-102.9 3318.2,54.5l25.8 1538.4c229,-71 413.9,-392.1 603.3,-556.5 1342.1,-1164.6 3013.3,-1600.3 4737.6,-1144.1 2072.2,548.4 3116.1,2121.5 3263.5,4181.5 126.6,1768.9 114.4,4582.2 -3.4,6307.1l-203.7 5.9c-162.2,-148.6 -615.1,-184.2 -859,-224.4l-2417.4 -241.3 -19.7 -4909.5c-82.9,-1315.9 -780.5,-2169.6 -2028.1,-2286.5 -1247.7,-116.8 -2936.2,739.6 -2936.2,5342.2 15.9,714.3 30.9,1425.7 -1.1,2098.9 -1235.6,199.9 -2364,462 -3471.1,766.8z"/>
  <path class="fil2" d="M69705.2 4401c172.2,161.7 464.1,252.8 696.5,470.2 206.9,193.3 363.1,439.2 468.5,723.7 136.2,368 301.2,1790.7 129.5,2074 -223.9,173.8 -2475.7,389.6 -2895,681.2 -868.6,192 -2173.8,833 -2758.3,1460.1 -750.5,805.3 -1047,2169.1 -423.3,3152.7 394.4,639.7 979.2,1001.7 1751.9,1139.7 451.9,80.8 928.5,70.8 1374.6,-35.2 224.8,-53.4 917.3,-245.1 990.5,-397.7 342.3,-102.6 443.1,-265.8 742.1,-395.8 42.2,-102.2 325.5,-282.5 440.6,-479.4 325.5,-160.1 648.8,-865.1 826.8,-941.8 45.9,787.4 21.8,1185.3 575.3,1786.5 1253.2,1271.8 4453.7,-409 3952,-957.1 -224.3,-208.6 -349.8,301.1 -976.9,204.6 -398.1,-61.3 -560.9,-421.9 -593.1,-785.2 -89.3,-431.2 -1.1,-2047.6 7.9,-2597.1 13.8,-840.5 18.4,-1731.2 -26,-2569.6l-40.8 -102.1c47.4,-609.7 -250.2,-1278.5 -595.8,-1765.9 -319,-529.8 -1237.2,-986.7 -1842.3,-1143.5l-777.8 -161.5c-753.9,90 -1151.6,-192.9 -2693.7,217.6 -2023.7,538.6 -3350.7,2272.6 -2166.6,3135.2 596.1,434.4 1803.9,83.3 2143.5,-518.6 -123.8,-439.4 -569.3,-573.6 -479.3,-1181.5 68.7,-463.4 378.1,-820 828.4,-946 215.1,-135.7 918.7,-183.3 1143.1,-67.3l197.7 -0.1zm1048.3 3953.6l274.9 -23.4c28.6,541.5 52.5,1981 -22,2463.9 -72,466.9 -690.7,1177.5 -1107.9,1373.6l-135 64.3c-315.8,380.7 -952.9,332.8 -1398.6,247.1l-17.8 -40.7c-424.5,-209.7 -708.5,-588.6 -773.2,-1065.9 -55,-405.7 34.1,-1227.2 392.1,-1463l-16 9c419.5,-792.4 1896.1,-1438.3 2803.5,-1565z"/>
  <path class="fil2" d="M23832.8 13503.1l305.3 222.6c717.9,383.6 1373.5,231.6 2109.1,-2.4 370.4,-117.7 1571.5,-620.9 1489.7,-1087.4 -327.6,-53.9 -489.3,204.5 -1144,117.2 -278.7,-513.7 -304,-381.7 -355.6,-1054.2l-29.7 -7931.3c-349.2,-22.6 -1413.5,327.4 -1842,424.4 -364.8,82.6 -1623.4,255.2 -1844,383.7 76.3,229 185.9,189.1 364.8,339.5 156.3,131.4 175,257.1 317.9,375.7 8.9,284.7 94,618.9 101.8,993 19.7,938.1 45.5,2556.7 0.6,3404.6 -106.2,2006.9 -1522.5,2715 -1633.8,2868.4 -919.7,192.4 -607.4,152 -1431.1,-91.1 -141.4,-246.4 -334.3,-382.1 -449,-715.3 -517.5,-1503.7 6.3,-6089.5 -194.5,-7973.3 -261.8,-26.6 -992.5,162 -1249.3,273.3l-311.2 50 -2025.5 365.9 -308.2 73.3 21.9 162.9c1165.5,617.4 933.5,1100.1 933.5,2880.1 0,2086.3 -485.9,5132.6 1360.8,6197 1051.8,606.2 2023.9,368.9 3072.6,-40.3l664.5 -341.4 60.8 -32c219,-294.6 603.9,-430 783.9,-776.9 304.5,-171.9 411,-645.4 681.2,-802.7 65.6,158.7 55.2,689.3 148.4,994.2 97.6,319.2 192.9,476.6 401.2,722.6z"/>
  <path class="fil2" d="M13675.3 55523.6c329.9,-99.7 1522,-620.5 1684.8,-858.7 278.5,-91.1 684.1,-420.8 934.6,-600.6 277.5,-199.1 584.8,-586.2 821.5,-705.2 106.9,-266.7 448.1,-413.2 552.5,-691.3l-1573.9 -1380.5 -1089.7 -1077.5c-138.6,89.8 -452.9,460.3 -614.1,612.4 -1722.7,1624.7 -4243.1,2284.8 -6477.8,1337.9 -239.3,-109.3 -731.3,-413.4 -941.3,-428.9 -178.4,-310.6 -2004.7,-1067.3 -2504,-4028.7 -181.9,-1078.8 46.8,-1583.3 -16.4,-2047.8 172.3,-231.2 295.5,-1766.2 1554.7,-3056.3 154.3,-158.1 774.2,-646.9 838.3,-745 190.1,-20.6 670.6,-341.8 908.1,-446.3 353.3,-155.4 721.4,-254.9 1092.6,-343.3 992.6,-236.1 1654.3,-105.2 2620.9,57.1 451.4,191.6 1729.5,503.9 1966.4,940.6 543.4,251.9 909.4,820.8 1358.8,1157.7l1500 -1322.8 1194.3 -1087.5c-267.7,-401.7 -847.1,-962.8 -1225.9,-1242 -1109.2,-963.5 -2647.1,-1670.3 -4117.8,-1945.9 -690,-132.3 -1459.7,-200.9 -2163.6,-199.4 -380,0.9 -751.8,17.3 -1128.4,59.9 -287.8,32.6 -724.4,129.1 -977.8,135.2 -510.2,162.8 -1027.4,251.8 -1545.8,435.7 -487.3,172.8 -902.3,384.4 -1364.7,572.7 -648.6,378.9 -1027.7,601.3 -1584.9,1076.8 -553.6,472.5 -799.4,797.4 -1279.1,1325.7 -267.8,400.6 -786.3,1050.8 -894,1510.4 -274.9,274.9 -569.9,1380.5 -684.4,1851 -180.6,741.5 -262.3,1466.3 -281.6,2235.1 -28.2,1126.3 128.3,2256.4 493.6,3310.7 101.4,292.6 272.7,639.2 348.8,924.8 58.9,59.3 495,902.7 595.2,1072.8 235,399.1 462.2,614.9 757.9,954 1838,2107.5 4197.8,2995.7 6957.4,3244.4 1246.3,39.2 3181.3,-68.8 4285,-607.4zm215.2 -14035.5c2.5,1.8 5,3.5 7.4,5.3l-7.4 -5.3zm297.7 215.2c1.1,0.5 2.1,1.1 3.3,1.4 -1.2,-0.4 -2.2,-0.9 -3.3,-1.4zm12.5 2.7c0.8,-0.1 1.6,-0.2 2.4,-0.4 -0.8,0.2 -1.6,0.3 -2.4,0.4z"/>
  <path class="fil2" d="M35646.8 52292.6l-1037 2195.8c170.1,190.6 535.3,328.5 796.8,451.2 250.7,117.6 608.4,323.7 876.4,331.1 396.3,335.1 2166.7,657.6 2756.5,738.6l1153.8 93.2c871.8,25 1889.5,14.5 2741,-169.9 456.5,-98.9 1767.9,-470.7 2024.8,-823.1 307.7,-38.9 1100,-729.7 1146.6,-998.4 565.5,-361.6 837,-1757.2 813,-2408.4 -24.8,-674 -434.1,-1915.2 -1024.3,-2196.7 -114.7,-419.7 -1619,-1036.3 -2064.7,-1172.6 -821.1,-251.2 -1875.5,-397.2 -2621,-658.7 -185.6,-26.5 -187.9,-2.4 -324,-104 -377.5,41.2 -1337.6,-322.1 -1674.1,-536.2 -764.1,-466 -937.8,-2142.8 2052.1,-1978.5 661.4,36.4 1478.5,174.4 2108.5,366.6 406.1,123.9 1494.6,696.9 1741.6,709 160.6,-266.7 1051.2,-2208.4 1070.8,-2435.9l90.6 -176.9 -247.9 -232.2 -79.3 -28.3c-405.8,-111.3 -909.5,-358.8 -1349.1,-499.7 -471.2,-151 -1015.7,-309.5 -1509,-352.8 -487.4,-251.4 -2967.2,-175.1 -3626.2,-83.7 -537.2,74.5 -1020.9,199.4 -1521.8,391 -226.6,86.6 -451.2,189 -670.1,294.6 -233.8,112.8 -406.9,267.2 -617.5,372.5 -359.3,342.8 -602.7,482.8 -914.9,928.9 -233.2,333.1 -440.1,872.5 -547.9,1266.5 -143.7,614.6 -157,2140.6 297.4,2599.5 254.6,727.6 962.1,1204 1613.8,1541.5 862.5,446.7 1563.4,487.5 2400.4,790.9l1672.4 370.2c520.7,142.6 1461.6,311.4 1789.3,730.7 520.4,665.9 -19.8,1248.8 -638.7,1478.5 -666.3,247.4 -1536.8,267.5 -2246.2,193.2 -480.5,-50.4 -1827.6,-393.1 -2086,-379.5 -176.3,-154.5 -883.6,-366.8 -1167.4,-499.4 -271.2,-126.7 -805.2,-498.8 -996.1,-565.1l-182.6 456.3z"/>
  <path class="fil2" d="M23242.9 29655.7c-271.8,-838.4 -326.9,-981.8 -327.3,-1921.4 -0.4,-726.3 7.1,-1454.9 14.2,-2181.4l5.9 -4324.5 -3456.1 -0.6c-19.8,1578.8 9.6,3163 -6.3,4740.6 -14.3,1415.9 -130.5,3147.8 251.7,4495.6 536.7,1893 2032.3,2987 3971.7,3080.6 909.6,43.9 1249.6,-119.4 2079.4,-299.3 106.8,-83.6 452.1,-230 611.7,-326.1 189.5,-114 364.6,-247 541.4,-371.6 214.3,-169.7 785,-785.2 932.9,-835l47.6 1563c219.7,144.3 1258,47.4 1606.1,47.4 490.7,0 1170.4,43.7 1654.4,-2.7l-14.2 -12081.3 -3455.9 2.3c-53.4,1120.8 -10.8,4333.9 5.1,5610.1 10.8,859.6 68,1689.2 -341.1,2469.4 -292.5,557.7 -860.9,1087.6 -1499.5,1231.4 -549.5,149.7 -1121.3,159.2 -1646.7,-62.9 -598,-252.9 -786.9,-727.9 -974.9,-833.6z"/>
  <path class="fil2" d="M60528.6 5770.7c-158.7,263.2 -567.3,1234.9 -715.5,1333.7 -77.6,-574.7 185.8,-3031 25,-3295.8 -179.2,-130.7 -628.9,76 -868.7,137 -1176.5,298.7 -1734.9,373.2 -2873.8,610.9l-152.9 66c-10.3,226.1 7,194.7 198.2,256.2 70.6,85.7 224.6,160.2 330.2,264.6 358.2,353.7 348.5,924.9 356.9,1400.5 7,396.7 3.6,797.8 -0.3,1194.6 -7.7,778.3 -24.9,1559.1 -20.7,2337.2 3.8,701.2 49.6,1605.5 -27.5,2283.5 -34.7,304.5 -129.2,582.6 -307,833.6 -182,256.9 -559.2,427.3 -415.5,675.9 164.6,81.9 4406.8,85.7 4614.4,-1.5 10.7,-314.1 -335.1,-263 -661.7,-786.3 -237.4,-380.3 -211.5,-794 -216.8,-1239.2 -16.9,-1428.8 -180,-3752.4 914.2,-4905.9 260.5,-274.6 468.9,-475.7 835.6,-619.9 1130.8,-444.7 1423.1,337.9 2043.7,514 292.7,-202.1 648.4,-1088.8 802.2,-1451.4 98.5,-291.4 361,-801.6 269.2,-1096.3 -94.1,-302.2 -641.3,-519.2 -933.1,-564.1 -1334.5,-205.4 -2560,998.1 -3196,2052.7z"/>
  <path class="fil2" d="M34390.4 16065.3c-705.4,455.1 -1074.6,1085.9 -921.1,1995.2 61.9,367.1 225.6,711.8 484.8,976.8 307.7,314.8 666.6,388.5 891.6,603.4 394.8,-87.8 1809.9,413.9 2599.4,-1013.2 371.1,-670.8 249.6,-1533.1 -218.8,-2135.4 -127.8,-164.2 -381.9,-297 -465.7,-436.6l-98.1 22.3c-234.4,-266.1 -806.9,-338.3 -1174.3,-335.3 -412.7,3.3 -740,147.3 -1097.7,322.8z"/>
  <path class="fil2" d="M46291.2 1811.1c62.5,-103.2 291.7,-210.3 443.8,-222.6 272.6,-332.8 1244,-319.3 1645,-197.3 532,161.8 854.5,434.7 1149.8,881.4l220.4 -231.7c220.6,-205.6 856.9,-697.7 765,-1019.3 -96.5,-337.6 -768.9,-740.2 -1107.3,-818.1 -233.5,-208.4 -1183.6,-166.2 -1503.2,-93.7 -447.7,101.5 -831.1,291.8 -1216.2,547.4 -512.3,339.9 -1554.2,1232.6 -1682.9,1839.6l191.7 192.7c314.9,-125.6 587.8,-658.9 1093.9,-878.4z"/>
  <path class="fil5" d="M64525.3 39532.2c-716.8,6.3 -1578.2,-41.7 -2277.5,-138.1 -419.7,-57.8 -1887.7,-354.4 -2161.7,-203.2 120.4,456.1 2372,1098.1 2878.5,1232.6 2909.9,773.1 7087.8,1278.5 9928.1,-30.2 826.7,-380.8 1856.6,-1092.3 2114.3,-2004.3 619.2,-1102.8 -255.1,-2709.2 -1786.4,-1735.2 -439.1,279.4 -825.6,623.2 -1307.1,938.4 -2081.7,1362.4 -4948.4,1918.6 -7388.2,1940.1z"/>
  <path class="fil2" d="M53747.9 39251.2l-3853 -6.5 3.1 3348.8 -2246.5 -15.3 -19.6 2894.1 2232 -13c-2.9,1741.2 -5.9,3482.4 -8.8,5223.5 -105.4,5290.9 3891.9,6496.1 8180.5,4490l-951.6 -2634.3c-1487.6,1017.2 -3190.5,765.3 -3340,-1281.5l14 -5764.2 3673 -27.7 0.7 -2924.2 -3681.2 6.5 -2.7 -3296.2z"/>
  <path class="fil2" d="M1135.2 20614.7c-28.3,262 -474.4,808.3 -719.3,1652 -180.1,620.4 -329.1,1282.3 -368,1942.9 -88.5,1499.5 59.5,2708.6 564.3,4087.1 231.7,380.5 935.7,1958.8 1315.5,2062.8l33.9 147.9c98.4,56.5 607.9,579.5 749.9,710.7 269.3,248.7 585.4,425.3 843.6,671.4 442.5,213.7 836.1,531 1331.8,734.4 488.4,200.3 1106.1,422.8 1620.4,533l571.3 136.8 986.8 148.5c1368.1,42.1 1837.9,-14.7 2233.3,-66.2 244.3,-63.9 499.8,-109.7 741.7,-163.1 422.5,-93.3 424.6,-183.7 736.8,107.3 347.5,323.9 666.5,585.8 1013.3,907.3 595.5,552.2 1444.8,1261.1 2158.3,1722.5l190.6 122.2c1361.1,842.5 1784.8,1061.2 3833.3,1806.9 447.4,97.3 890.5,250.1 1341.1,354.4 1486.9,344 3220.4,457.7 4737.1,402.2 2189.9,-80.2 4154.1,-514.1 6248.4,-1116.6 -1924.5,213.9 -3106.1,130.7 -3133,130.4 -1029.1,-53.6 -4020.1,-468.9 -4789.3,-860.5 -450.4,-78.4 -1264.9,-405.7 -1697.2,-596.2 -1533.8,-675.9 -3216.3,-1740.9 -4624,-2647.1 -864.6,-556.5 -1653.6,-1371 -2472,-1912.1 89.4,-148.2 743.6,-721.2 945.2,-954.2 1483.1,-1715 2127.3,-3282.5 2115.3,-5697.7 -5.2,-1046.7 -164.2,-2098.4 -526.2,-3079.2 -336.1,-910.7 -714.5,-1528.5 -1313.4,-2270.1 -187.4,-232 -598.8,-707 -1014.8,-1096.2 -443.9,-415.3 -1318,-947.4 -1880.2,-1179.6 -824.9,-340.7 -1904.7,-618.6 -2441,-698.2 -715.5,-106.1 -1447.3,-152.8 -2170.9,-114.6 -408.8,21.6 -1782.2,137.7 -2035.1,356.4 -458.9,-9.3 -1379.5,456.1 -1810.6,675.5 -620.7,315.8 -1039.9,674.8 -1580.1,1013.5 -11.8,42.8 -765.3,816.1 -881.2,940.9 -190.7,205.4 -753.5,1016 -855.8,1084.7zm9320.6 9569.3c-870.4,400.8 -2483.8,178 -3386.4,-107.9 -950.2,-301.1 -1652.8,-851.8 -2224,-1630.1 -1370.7,-1469.7 -1268.1,-4259.6 -464.4,-6042.1 501.6,-920.9 1213.4,-1702.8 2204,-2128.4 522.2,-252.1 1033.7,-407.7 1532.8,-482 255.2,4.3 599.2,-43.2 831.3,-33.8 467.4,19 910,87.4 1325.6,204.6 379.9,116 749.6,273.7 1107.7,465.5 820,474.7 1489.1,1197.4 1979.2,2161.8 729.7,1435.9 654.5,3656.6 -66.3,5128.9 -545.1,1113.5 -1608.6,2155.8 -2839.4,2463.4z"/>
  <path class="fil2" d="M58788.7 18206.4l-3495 -6 2.8 3037.8 -2037.8 -13.8 -17.8 2625.2 2024.6 -11.8c-2.6,1579.5 -5.2,3158.8 -8,4738.3 -93.1,4669.7 3337.2,5830.7 7106.1,4213.8l-816.8 -2363.7c-1278.2,718.8 -2635,405.4 -2761.5,-1329.2l12.6 -5228.8 3037.3 -25.2 0.7 -2652.5 -3044.7 6 -2.5 -2990z"/>
  <path class="fil2" d="M71337.5 26271.5c-158.1,49.8 -1574.2,-172.9 -1901.1,-192.7 -700.8,-42.3 -1488.6,-41.7 -2185.9,28.1 -637.3,63.7 -1237.1,166.6 -1821.2,412.6 -855.4,360.2 -1368.9,737 -1856.3,1543.9 -159.5,263.9 -249.7,531.1 -320.8,836.6 -522.9,2247.1 977.8,4182.6 3152.3,4536.2 584.4,273.4 2331.2,12.5 2960.7,-214.5 538.5,-194.1 1758.7,-1020.4 2002.8,-1513.4 23,316.7 -163.2,923.6 -192.7,1031.5 690.7,-501.7 4045.1,-2616.6 3556.8,-6964.8 -14.2,-538.6 -72.3,-1290.1 -427.8,-2037.6 -1267.1,-3101.5 -6304.1,-3181.6 -8864,-2191.5 -376.5,139.2 -1350.1,561.7 -1616.2,833.5 60.8,244.5 932.4,2149 1070,2350.3 986,-411.6 1518.4,-787.2 2697.9,-988.6 514.6,-87.9 1078.8,-114.7 1598.3,-47.7 1389.4,179.5 2275.9,1041 2147.1,2578.3zm18.7 1869.2c59.2,1991.4 -903.7,2194.4 -1161.4,2553l-588 233.5c-746.6,277.3 -1968.4,271.6 -2599.1,-288.4 -1243.4,-1104.4 272.2,-2310.3 193.2,-2177.1 559.6,-580.2 3160.3,-343.3 4155.3,-321z"/>
 </g>
</svg>
